<svg width="960" height="1120" viewBox="0 0 960 1120" fill="none" xmlns="http://www.w3.org/2000/svg">
  <rect width="960" height="1120" rx="64" fill="url(#bg)"/>
  <circle cx="759" cy="192" r="124" fill="#CFE2FF"/>
  <circle cx="205" cy="889" r="173" fill="#DCEBFF"/>
  <rect x="105" y="146" width="750" height="828" rx="42" fill="#FDFEFF" stroke="#D7E6FA" stroke-width="10"/>
  <rect x="167" y="210" width="626" height="704" rx="313" fill="url(#portrait)"/>
  <circle cx="480" cy="435" r="177" fill="#0F2955"/>
  <path d="M266 855C266 720.28 360.28 626 495 626H465C599.72 626 694 720.28 694 855V867H266V855Z" fill="#0B63F6"/>
  <path d="M337 455C337 377.68 399.68 315 477 315H484C561.32 315 624 377.68 624 455V540C624 617.32 561.32 680 484 680H477C399.68 680 337 617.32 337 540V455Z" fill="#F8C9B0"/>
  <path d="M341 481C341 369.438 431.438 279 543 279H547C638.562 279 713 353.438 713 445V452C713 476.301 693.301 496 669 496H646V451C646 376.442 585.558 316 511 316H506C431.442 316 371 376.442 371 451V496H341V481Z" fill="#142F63"/>
  <path d="M454 609H509C564.228 609 609 653.772 609 709V771H354V709C354 653.772 398.772 609 454 609Z" fill="#F8C9B0"/>
  <rect x="352" y="768" width="260" height="81" rx="40.5" fill="#0E4CCB"/>
  <path d="M278 165H405L372 208H245L278 165Z" fill="#0E4CCB"/>
  <path d="M675 887H786L748 930H637L675 887Z" fill="#C8DEFF"/>
  <defs>
    <linearGradient id="bg" x1="111" y1="93.5" x2="860" y2="1056.5" gradientUnits="userSpaceOnUse">
      <stop stop-color="#EAF3FF"/>
      <stop offset="1" stop-color="#F7FBFF"/>
    </linearGradient>
    <linearGradient id="portrait" x1="480" y1="210" x2="480" y2="914" gradientUnits="userSpaceOnUse">
      <stop stop-color="#EEF6FF"/>
      <stop offset="1" stop-color="#D9E9FF"/>
    </linearGradient>
  </defs>
</svg>
